<svg xmlns="http://www.w3.org/2000/svg" viewBox="0 0 100 100">
  <defs>
    <!-- The App Background Gradient from index.css -->
    <linearGradient id="appBg" x1="0%" y1="0%" x2="100%" y2="100%">
      <stop offset="0%" stop-color="#f5f3ff"/>
      <stop offset="50%" stop-color="#fdf2f8"/>
      <stop offset="100%" stop-color="#eef2ff"/>
    </linearGradient>

    <!-- Avatar Gradients -->
    <radialGradient id="body" cx="50%" cy="40%" r="60%">
      <stop offset="0%" stop-color="#D1BFFF"/>
      <stop offset="40%" stop-color="#C4B5FD"/>
      <stop offset="80%" stop-color="#A78BFA"/>
      <stop offset="100%" stop-color="#8B5CF6"/>
    </radialGradient>
    <radialGradient id="belly" cx="50%" cy="50%" r="50%">
      <stop offset="0%" stop-color="#F5F3FF"/>
      <stop offset="100%" stop-color="#DDD6FE"/>
    </radialGradient>
  </defs>
  
  <!-- Background with slightly rounded corners to look nice even if unmasked, 
       but filling enough for standard masking (Apple icons are usually squircles).
       We use a rect filling the whole viewbox. -->
  <rect width="100" height="100" fill="url(#appBg)" />
  
  <!-- Content Group scaled to 85% and centered -->
  <g transform="translate(50, 50) scale(0.85) translate(-50, -50)">
      <!-- Simple round fluffy body -->
      <circle cx="50" cy="52" r="40" fill="url(#body)"/>
      
      <!-- Oval ears (matching WebGL avatar) - taller than wide -->
      <ellipse cx="28" cy="22" rx="8" ry="12" transform="rotate(-15 28 22)" fill="#A78BFA"/>
      <ellipse cx="72" cy="22" rx="8" ry="12" transform="rotate(15 72 22)" fill="#A78BFA"/>
      <!-- Inner ears -->
      <ellipse cx="28" cy="22" rx="4" ry="7" transform="rotate(-15 28 22)" fill="#DDD6FE"/>
      <ellipse cx="72" cy="22" rx="4" ry="7" transform="rotate(15 72 22)" fill="#DDD6FE"/>
      
      <!-- Belly -->
      <ellipse cx="50" cy="58" rx="22" ry="20" fill="url(#belly)"/>
      
      <!-- Blush cheeks -->
      <ellipse cx="32" cy="56" rx="8" ry="5" fill="rgba(255, 100, 120, 0.4)"/>
      <ellipse cx="68" cy="56" rx="8" ry="5" fill="rgba(255, 100, 120, 0.4)"/>
      
      <!-- Eyes -->
      <ellipse cx="38" cy="45" rx="8" ry="9" fill="white"/>
      <ellipse cx="62" cy="45" rx="8" ry="9" fill="white"/>
      <!-- Pupils -->
      <ellipse cx="40" cy="46" rx="4" ry="5" fill="#1E1B4B"/>
      <ellipse cx="64" cy="46" rx="4" ry="5" fill="#1E1B4B"/>
      <!-- Eye shine -->
      <circle cx="42" cy="43" r="1.5" fill="white"/>
      <circle cx="66" cy="43" r="1.5" fill="white"/>
      
      <!-- Nose -->
      <ellipse cx="50" cy="54" rx="3" ry="2" fill="#7C3AED"/>
      
      <!-- Smile -->
      <path d="M 44 60 Q 50 65, 56 60" fill="none" stroke="#7C3AED" stroke-width="2" stroke-linecap="round"/>
  </g>
</svg>
